<svg width="81" height="80" viewBox="0 0 81 80" fill="none" xmlns="http://www.w3.org/2000/svg">
<path opacity="0.3" d="M80.5 40C80.5 62.0914 62.5914 80 40.5 80C18.4086 80 0.5 62.0914 0.5 40C0.5 17.9086 18.4086 0 40.5 0C62.5914 0 80.5 17.9086 80.5 40ZM11.4071 40C11.4071 56.0675 24.4325 69.0929 40.5 69.0929C56.5675 69.0929 69.5929 56.0675 69.5929 40C69.5929 23.9325 56.5675 10.9071 40.5 10.9071C24.4325 10.9071 11.4071 23.9325 11.4071 40Z" fill="#2F2E30"/>
<circle cx="40.5" cy="40" r="29" fill="black"/>
<path d="M40.9277 49.7731H41.4277C41.974 49.7731 42.501 49.5831 42.9199 49.2399L43.0928 49.0836C43.5343 48.6421 43.7821 48.0429 43.7822 47.4186C43.7822 46.8722 43.5922 46.3453 43.249 45.9264L43.0928 45.7535C42.6512 45.312 42.0522 45.0641 41.4277 45.0641H40.9277V49.7731ZM39.5732 39.5006C39.0268 39.5006 38.5001 39.6904 38.0811 40.0338L37.9082 40.1901C37.4668 40.6316 37.2188 41.2308 37.2188 41.8551C37.2189 42.4793 37.4669 43.0777 37.9082 43.5192C38.3497 43.9607 38.9488 44.2096 39.5732 44.2096H40.0732V39.5006H39.5732ZM40.0732 45.0641H39.5732C38.7756 45.0641 38.0085 44.7668 37.4199 44.234L37.3037 44.1237C36.7022 43.522 36.3644 42.7059 36.3643 41.8551C36.3643 41.0572 36.6613 40.2895 37.1943 39.7008L37.3037 39.5856C37.9055 38.9838 38.7222 38.6461 39.5732 38.6461H40.0732V37.7184H40.9277V38.6461H41.4277C42.0086 38.6461 42.5771 38.8031 43.0732 39.0992L43.2812 39.235C43.7552 39.5702 44.1282 40.0265 44.3623 40.5543L44.4541 40.7858C44.4634 40.8121 44.4697 40.8393 44.4736 40.8668L44.4775 40.9498C44.4746 41.0059 44.4607 41.0613 44.4365 41.1119C44.4245 41.1371 44.4102 41.161 44.3936 41.1832L44.3369 41.2457C44.3162 41.2643 44.2934 41.2804 44.2695 41.2946L44.1934 41.3307C44.1405 41.3494 44.0843 41.3571 44.0283 41.3541C44.0002 41.3526 43.9724 41.3484 43.9453 41.3414L43.8672 41.3131C43.7905 41.2765 43.7264 41.2181 43.6836 41.1461L43.6484 41.0699C43.5063 40.6682 43.2579 40.3132 42.9316 40.0426L42.7871 39.9323C42.3895 39.6512 41.9147 39.5005 41.4277 39.5006H40.9277V44.2096H41.4277C42.2788 44.2096 43.0955 44.5472 43.6973 45.149C44.299 45.7509 44.6367 46.5675 44.6367 47.4186C44.6366 48.2694 44.2988 49.0854 43.6973 49.6871C43.0955 50.2889 42.2788 50.6276 41.4277 50.6276H40.9277V51.5543H40.0732V50.6276H39.5732C38.9923 50.6275 38.4239 50.4697 37.9277 50.1735L37.7197 50.0387C37.2456 49.7034 36.8728 49.2464 36.6387 48.7184L36.5469 48.4879L36.542 48.4742L36.5195 48.3922C36.5148 48.3642 36.5128 48.3358 36.5137 48.3073C36.5146 48.2786 36.5188 48.2501 36.5254 48.2223L36.5527 48.1422C36.5646 48.1164 36.5791 48.0918 36.5957 48.069L36.6533 48.0055C36.6745 47.9861 36.6971 47.9684 36.7217 47.9537L36.7988 47.9176C36.8255 47.9082 36.853 47.902 36.8809 47.8981L36.9668 47.8942C37.0237 47.8976 37.0797 47.9128 37.1309 47.9381C37.1564 47.9508 37.1807 47.9656 37.2031 47.983L37.2646 48.0416C37.2833 48.0633 37.2996 48.0871 37.3135 48.1119L37.3477 48.1901L37.3496 48.1969L37.3525 48.2037C37.677 49.1184 38.5483 49.773 39.5732 49.7731H40.0732V45.0641Z" fill="#FAFAFA" stroke="#FAFAFA"/>
<path d="M40.5361 23.8094C44.1945 23.8094 47.5515 24.8937 49.7852 25.9169L50.2168 26.12L50.3447 26.1825C50.784 26.3999 51.1638 26.6085 51.4766 26.7948L48.3457 31.3729L48.1143 31.7108L48.4014 32.0048C50.3396 33.9864 52.1698 36.5169 53.4805 39.1923C54.7934 41.8724 55.5683 44.6628 55.4414 47.1737C55.3155 49.6638 54.3056 51.8866 52.0166 53.5038C49.7054 55.1366 46.038 56.1884 40.5361 56.1884C35.0332 56.1883 31.3546 55.1548 29.0283 53.5438C26.7249 51.9487 25.6988 49.7545 25.5576 47.286C25.4153 44.7955 26.1757 42.0153 27.4834 39.3202C28.7888 36.63 30.6227 34.0594 32.5811 31.9989L32.8594 31.7069L32.6328 31.3739L29.5225 26.7968L30.043 26.5067L30.0449 26.5057L30.6611 26.1903L30.7197 26.162C32.9563 25.0759 36.5841 23.8095 40.5361 23.8094ZM47.457 32.6981C43.1083 34.3798 37.8703 34.38 33.5215 32.7001L33.2061 32.578L32.9756 32.826C31.2714 34.6629 29.6778 36.8908 28.4844 39.2245L28.251 39.6932C27.0598 42.149 26.3686 44.6147 26.3955 46.8036L26.4102 47.2372C26.5296 49.3323 27.3385 51.1685 29.1396 52.5682L29.5127 52.8417C31.6392 54.3136 35.1197 55.3338 40.5352 55.3339C45.6083 55.3339 48.9721 54.4217 51.1104 53.08L51.5215 52.8055C53.4431 51.4474 54.3549 49.635 54.5557 47.5507L54.5869 47.1298C54.6965 44.958 54.0737 42.4996 52.9443 40.0565L52.7119 39.5673L52.7109 39.5653L52.4766 39.1044C51.2861 36.8113 49.7793 34.6958 48 32.8202L47.7695 32.577L47.457 32.6981ZM49.2627 27.0809C46.9933 27.2444 44.3596 27.7298 41.7637 28.4198L40.6553 28.7274C38.7952 29.2648 36.7165 29.227 34.7295 28.9003L34.334 28.8309C33.8047 28.7328 33.2788 28.6166 32.7578 28.4813L31.4727 28.1473L32.2188 29.246L33.999 31.8671L34.0908 32.0028L34.2451 32.0575C38.1692 33.4545 42.7998 33.4545 46.7246 32.0594L46.8779 32.0048L46.9697 31.87L49.7119 27.8622L50.2969 27.0067L49.2627 27.0809ZM40.5352 24.6639C37.4585 24.664 34.588 25.4674 32.4893 26.3114L32.0801 26.4803L30.8008 27.0233L32.1328 27.4198C32.7006 27.5887 33.2884 27.7413 33.8867 27.87L34.4873 27.9901H34.4883C36.3959 28.3415 38.3473 28.4202 40.0742 27.9969L40.417 27.9061L40.418 27.9052C42.3862 27.3318 44.3882 26.8815 46.4121 26.5555L46.4766 25.5829C44.7351 25.0586 42.6902 24.6639 40.5352 24.6639Z" fill="#FAFAFA" stroke="#FAFAFA"/>
</svg>
